<svg width="334" height="93" viewBox="0 0 334 93" fill="none" xmlns="http://www.w3.org/2000/svg">
<g filter="url(#filter0_d_385_624)">
<path d="M234.95 71.4345C230.126 71.4345 225.893 70.3703 222.251 68.242C218.656 66.1137 215.866 63.134 213.88 59.303C211.893 55.4247 210.9 50.8843 210.9 45.6818C210.9 40.4319 211.893 35.8915 213.88 32.0605C215.866 28.2295 218.656 25.2735 222.251 23.1925C225.845 21.0642 230.078 20 234.95 20C239.821 20 244.054 21.0642 247.649 23.1925C251.243 25.2735 254.034 28.2295 256.02 32.0605C258.007 35.8915 259 40.4082 259 45.6108C259 50.8607 258.007 55.4247 256.02 59.303C254.034 63.134 251.243 66.1137 247.649 68.242C244.054 70.3703 239.821 71.4345 234.95 71.4345ZM234.95 63.6306C239.538 63.6306 243.109 62.0462 245.663 58.8774C248.217 55.7085 249.493 51.31 249.493 45.6818C249.493 40.0062 248.217 35.6077 245.663 32.4862C243.156 29.3646 239.585 27.8038 234.95 27.8038C230.362 27.8038 226.791 29.3646 224.237 32.4862C221.683 35.6077 220.406 40.0062 220.406 45.6818C220.406 51.31 221.683 55.7085 224.237 58.8774C226.791 62.0462 230.362 63.6306 234.95 63.6306Z" fill="#F8F1F3"/>
<path d="M168.234 70.5698C165.473 70.5698 163.234 68.3312 163.234 65.5698V25.5542C163.234 22.7928 165.473 20.5542 168.234 20.5542H181.822C190.193 20.5542 196.649 22.7062 201.189 27.0101C205.777 31.3141 208.071 37.4862 208.071 45.5265C208.071 53.5195 205.777 59.6917 201.189 64.0429C196.649 68.3942 190.193 70.5698 181.822 70.5698H168.234ZM172.315 58.0497C172.315 60.8111 174.554 63.0497 177.315 63.0497H181.254C192.794 63.0497 198.565 57.2086 198.565 45.5265C198.565 33.8917 192.794 28.0743 181.254 28.0743H177.315C174.554 28.0743 172.315 30.3128 172.315 33.0743V58.0497Z" fill="#F8F1F3"/>
<path d="M155.91 70.725C153.402 70.725 151.369 68.6922 151.369 66.1846V25.6627C151.369 22.9271 153.587 20.7095 156.323 20.7095C158.602 20.7095 160.45 22.5575 160.45 24.8371V66.1846C160.45 68.6922 158.417 70.725 155.91 70.725Z" fill="#F8F1F3"/>
<path d="M120.614 70.725C118.106 70.725 116.073 68.6922 116.073 66.1846V25.7095C116.073 22.948 118.312 20.7095 121.073 20.7095H145.16C147.159 20.7095 148.779 22.3294 148.779 24.3276C148.779 26.3259 147.159 27.9458 145.16 27.9458H130.154C127.393 27.9458 125.154 30.1843 125.154 32.9458V37.0636C125.154 39.8251 127.393 42.0636 130.154 42.0636H145.16C147.159 42.0636 148.779 43.6835 148.779 45.6818C148.779 47.68 147.159 49.2999 145.16 49.2999H130.154C127.393 49.2999 125.154 51.5385 125.154 54.2999V66.1846C125.154 68.6922 123.121 70.725 120.614 70.725Z" fill="#F8F1F3"/>
<path d="M93.4387 71.4345C89.5131 71.4345 85.8713 70.9378 82.5133 69.9446C80.2214 69.2345 78.1719 68.3591 76.3647 67.3184C74.9107 66.4812 74.4167 64.6798 75.021 63.1147C75.9054 60.8244 78.72 59.9952 80.9349 61.0544C82.0365 61.5812 83.1775 62.0379 84.3578 62.4246C87.1483 63.3232 90.1753 63.7725 93.4387 63.7725C97.1751 63.7725 99.8946 63.1576 101.597 61.928C103.3 60.651 104.151 59.0192 104.151 57.0328C104.151 55.3774 103.536 54.0768 102.307 53.1309C101.124 52.185 99.0669 51.4046 96.1346 50.7897L88.3307 49.158C79.439 47.2662 74.9932 42.7021 74.9932 35.4658C74.9932 32.3443 75.8209 29.6247 77.4763 27.3072C79.1316 24.9897 81.4255 23.1925 84.3578 21.9155C87.2902 20.6385 90.6719 20 94.5028 20C97.9082 20 101.101 20.5203 104.08 21.5608C106.171 22.2577 108.017 23.1641 109.619 24.2802C110.831 25.1247 111.162 26.7225 110.606 28.0912C109.696 30.33 106.847 31.0164 104.686 29.9351C101.658 28.4197 98.2397 27.662 94.4319 27.662C91.1685 27.662 88.6145 28.3478 86.7699 29.7193C84.9254 31.0909 84.0031 32.8882 84.0031 35.1111C84.0031 36.8137 84.5707 38.1853 85.7058 39.2258C86.8409 40.2191 88.78 40.9994 91.5232 41.567L99.2561 43.1987C103.938 44.1919 107.415 45.7527 109.685 47.881C112.002 50.0093 113.161 52.8471 113.161 56.3943C113.161 59.374 112.357 61.9989 110.749 64.2691C109.141 66.5393 106.847 68.3129 103.867 69.5899C100.935 70.8196 97.4588 71.4345 93.4387 71.4345Z" fill="#F8F1F3"/>
</g>
<defs>
<filter id="filter0_d_385_624" x="-4" y="0" width="341.784" height="100.8" filterUnits="userSpaceOnUse" color-interpolation-filters="sRGB">
<feFlood flood-opacity="0" result="BackgroundImageFix"/>
<feColorMatrix in="SourceAlpha" type="matrix" values="0 0 0 0 0 0 0 0 0 0 0 0 0 0 0 0 0 0 127 0" result="hardAlpha"/>
<feOffset dy="4"/>
<feGaussianBlur stdDeviation="2"/>
<feComposite in2="hardAlpha" operator="out"/>
<feColorMatrix type="matrix" values="0 0 0 0 0 0 0 0 0 0 0 0 0 0 0 0 0 0 0.25 0"/>
<feBlend mode="normal" in2="BackgroundImageFix" result="effect1_dropShadow_385_624"/>
<feBlend mode="normal" in="SourceGraphic" in2="effect1_dropShadow_385_624" result="shape"/>
</filter>
</defs>
</svg>
