<svg width="334" height="93" viewBox="0 0 334 93" fill="none" xmlns="http://www.w3.org/2000/svg">
<path d="M290.392 92.8C281.688 92.8 274.051 90.88 267.48 87.04C260.995 83.2 255.96 77.824 252.376 70.912C248.792 63.9147 247 55.7227 247 46.336C247 36.864 248.792 28.672 252.376 21.76C255.96 14.848 260.995 9.51467 267.48 5.76C273.965 1.92 281.603 0 290.392 0C299.181 0 306.819 1.92 313.304 5.76C319.789 9.51467 324.824 14.848 328.408 21.76C331.992 28.672 333.784 36.8213 333.784 46.208C333.784 55.68 331.992 63.9147 328.408 70.912C324.824 77.824 319.789 83.2 313.304 87.04C306.819 90.88 299.181 92.8 290.392 92.8ZM290.392 78.72C298.669 78.72 305.112 75.8613 309.72 70.144C314.328 64.4267 316.632 56.4907 316.632 46.336C316.632 36.096 314.328 28.16 309.72 22.528C305.197 16.896 298.755 14.08 290.392 14.08C282.115 14.08 275.672 16.896 271.064 22.528C266.456 28.16 264.152 36.096 264.152 46.336C264.152 56.4907 266.456 64.4267 271.064 70.144C275.672 75.8613 282.115 78.72 290.392 78.72Z" fill="#F8F1F3"/>
<path d="M166 91.24C163.239 91.24 161 89.0014 161 86.24V6C161 3.23858 163.239 1 166 1H194.536C209.64 1 221.288 4.88267 229.48 12.648C237.757 20.4133 241.896 31.5493 241.896 46.056C241.896 60.4773 237.757 71.6133 229.48 79.464C221.288 87.3147 209.64 91.24 194.536 91.24H166ZM177.384 72.672C177.384 75.4334 179.623 77.672 182.384 77.672H193.512C214.333 77.672 224.744 67.1333 224.744 46.056C224.744 25.064 214.333 14.568 193.512 14.568H182.384C179.623 14.568 177.384 16.8066 177.384 19.568V72.672Z" fill="#F8F1F3"/>
<path d="M144.593 91.52C141.831 91.52 139.593 89.2815 139.593 86.52V7.28003C139.593 3.96632 142.279 1.28003 145.593 1.28003H150.977C153.738 1.28003 155.977 3.51861 155.977 6.28003V86.52C155.977 89.2815 153.738 91.52 150.977 91.52H144.593Z" fill="#F8F1F3"/>
<path d="M80.9098 91.52C78.1484 91.52 75.9098 89.2815 75.9098 86.52V6.28003C75.9098 3.51861 78.1484 1.28003 80.9098 1.28003H129.918C132.679 1.28003 134.918 3.51861 134.918 6.28003V9.33603C134.918 12.0975 132.679 14.336 129.918 14.336H97.2938C94.5324 14.336 92.2938 16.5746 92.2938 19.336V34.808C92.2938 37.5695 94.5324 39.808 97.2938 39.808H129.918C132.679 39.808 134.918 42.0466 134.918 44.808V47.864C134.918 50.6255 132.679 52.864 129.918 52.864H97.2938C94.5324 52.864 92.2938 55.1026 92.2938 57.864V86.52C92.2938 89.2815 90.0552 91.52 87.2938 91.52H80.9098Z" fill="#F8F1F3"/>
<path d="M35.072 92.8C27.9893 92.8 21.4187 91.904 15.36 90.112C10.7295 88.6772 6.64724 86.8685 3.11331 84.686C1.21387 83.513 0.554442 81.1241 1.35862 79.0415L2.66905 75.6479C3.84582 72.6003 7.58528 71.4918 10.4649 73.0346C13.0768 74.434 15.8178 75.6038 18.688 76.544C23.7227 78.1653 29.184 78.976 35.072 78.976C41.8133 78.976 46.72 77.8667 49.792 75.648C52.864 73.344 54.4 70.4 54.4 66.816C54.4 63.8293 53.2907 61.4827 51.072 59.776C48.9387 58.0693 45.2267 56.6613 39.936 55.552L25.856 52.608C9.81333 49.1947 1.792 40.96 1.792 27.904C1.792 22.272 3.28533 17.3653 6.272 13.184C9.25867 9.00267 13.3973 5.76 18.688 3.456C23.9787 1.152 30.08 0 36.992 0C43.136 0 48.896 0.938667 54.272 2.816C58.3941 4.19004 61.9895 6.01562 65.0581 8.29272C66.7263 9.53069 67.1949 11.7688 66.413 13.6935L65.3118 16.4042C64.0328 19.5524 60.0374 20.5245 57.0842 18.8436C51.2046 15.4972 44.4646 13.824 36.864 13.824C30.976 13.824 26.368 15.0613 23.04 17.536C19.712 20.0107 18.048 23.2533 18.048 27.264C18.048 30.336 19.072 32.8107 21.12 34.688C23.168 36.48 26.6667 37.888 31.616 38.912L45.568 41.856C54.016 43.648 60.288 46.464 64.384 50.304C68.5653 54.144 70.656 59.264 70.656 65.664C70.656 71.04 69.2053 75.776 66.304 79.872C63.4027 83.968 59.264 87.168 53.888 89.472C48.5973 91.6907 42.3253 92.8 35.072 92.8Z" fill="#F8F1F3"/>
</svg>
