<svg width="127" height="173" viewBox="0 0 127 173" fill="none" xmlns="http://www.w3.org/2000/svg">
<g filter="url(#filter0_d_1_231)">
<path d="M65.058 0.224278C65.1378 -2.20228 48.1834 15.582 38.9543 28.4129C37.4616 30.4885 32.5862 40.0184 32.5862 40.0184C23.1065 45.0201 15.2865 60.8011 16.5397 60.0213C17.416 59.4755 24.0533 56.3954 22.5123 57.6746C-5.92132 81.2978 6.84088 108.04 6.94299 108.048C7.70233 108.111 6.75362 101.412 11.4619 99.9584C13.4299 99.3513 -0.104625 116.896 20.4051 146.939C20.4051 146.939 14.7481 136.615 24.2928 132.824C27.0777 131.717 25.494 151.341 51.2059 162.446C51.7017 162.659 44.3923 154.375 46.9525 156.271C65.9937 170.375 85.9539 161.755 85.9799 161.644C85.991 161.599 78.5609 160.892 79.6118 159.447C81.0488 157.472 86.4217 158.736 96.4399 154.518C103.105 151.711 107.847 148.204 107.089 148.339C104.975 148.722 97.862 155.702 81.8712 153.048C79.7194 152.691 89.1472 150.768 95.0642 147.975C102.908 144.275 110.457 139.426 108.194 139.87C94.1637 142.619 84.437 137.562 84.3275 136.446C84.2087 135.224 90.9054 134.381 89.5167 134.276C79.5913 133.524 73.7784 131.431 71.1253 122.015C69.4154 115.951 68.0916 106.657 79.5635 104.696C90.1312 102.892 93.4991 111.016 106.963 107.79C117.018 105.38 120.654 94.9178 122.763 92.3074C123.362 91.5648 111.703 84.4076 103.612 75.1785C98.4877 69.3321 101.527 62.9807 100.578 59.9471C97.7599 50.9277 90.9611 45.6179 85.8685 40.9393C85.0943 40.2282 85.9632 33.3793 86.0114 27.2878C86.069 19.7946 86.2732 9.6836 87.8123 6.76319C89.8973 2.80308 68.6969 22.3493 67.8614 22.7558C64.8055 24.2393 64.8704 5.95743 65.0598 0.222422L65.058 0.224278Z" fill="#F8F1F3"/>
</g>
<g filter="url(#filter1_d_1_231)">
<path d="M39.9828 153.701C39.9345 157.316 32.1796 138.494 26.3313 120.71C20.8804 104.13 24.1851 81.3889 40.5528 61.8353C55.8325 43.5813 78.4476 55.4022 80.3711 56.5737C77.5119 54.8322 76.3218 53.2058 66.9219 48.1949C62.1041 46.5537 54.8374 44.8178 54.4883 45.5288C59.5401 35.2006 59.8409 26.9797 60.5278 21.2725C61.5694 12.6078 62.2804 4.71544 64.5845 1.64649C65.9416 -0.159968 64.5362 20.5094 67.2505 22.7838C68.1955 23.5765 84.0193 7.46133 87.9552 6.35852C86.0596 6.8895 86.1042 20.7322 86.1042 21.46C86.1042 36.1234 84.903 39.5989 85.6326 40.31C88.6904 43.2842 99.7557 53.4416 100.45 59.9508C98.9797 65.4872 71.2181 65.7341 65.1043 68.092C44.0747 76.2016 39.1752 92.2796 34.1513 102.708C33.3139 104.446 40.6864 93.3694 52.2122 96.7243C53.1683 97.0028 67.9969 89.673 82.5024 101.097C69.419 107.117 69.8386 111.326 70.7781 119.9C71.3146 124.798 74.0401 132.36 89.4238 134.374C89.6484 134.404 83.9858 135.971 84.2885 136.349C88.0963 141.106 104.705 140.898 108.203 139.962C109.577 139.595 99.234 147.868 88.7127 147.73C67.9987 147.457 63.3925 139.99 59.5123 134.174C51.3099 121.881 56.6104 116.146 56.228 115.942C54.3807 114.958 50.3036 119.872 48.8944 125.167C45.055 139.589 51.5865 148.336 51.8334 149.342C53.302 155.326 42.1235 131.307 39.4147 132.181C36.6799 133.065 40.0107 151.594 39.9828 153.701Z" fill="url(#paint0_linear_1_231)" shape-rendering="crispEdges"/>
</g>
<g filter="url(#filter2_d_1_231)">
<path d="M65.7205 62.4162C69.0493 62.0431 75.2113 61.8741 81.3641 65.1659C89.2063 69.3599 94.091 77.5976 92.9306 78.912C91.8315 80.156 84.6354 75.9675 80.5119 72.9394C77.6249 70.821 76.498 69.4564 72.549 66.6827C69.7623 64.724 67.345 63.3111 65.7223 62.4162H65.7205Z" fill="#0B526E"/>
</g>
<g filter="url(#filter3_d_1_231)">
<path d="M54.1559 45.4452C52.2789 45.2169 48.7365 33.706 52.86 23.5152C58.1531 10.4318 63.4705 2.68243 64.4322 1.76342C65.897 0.361695 62.739 6.77622 60.9047 18.9369C59.904 25.5779 60.3439 29.9873 58.0417 37.4842C57.3121 39.8588 55.5446 45.6179 54.1541 45.4471L54.1559 45.4452Z" fill="#FF2E63"/>
</g>
<g filter="url(#filter4_d_1_231)">
<path d="M76.1046 33.2549C75.8428 34.081 78.806 35.4902 80.6069 36.6283C82.5897 37.8815 82.2499 30.1822 84.0193 19.9431C85.6271 10.6416 87.4781 7.25517 86.3401 8.07579C84.9866 9.05421 76.5 31.5 76.1046 33.2549Z" fill="#FF2E63"/>
</g>
<g filter="url(#filter5_d_1_231)">
<path d="M122.763 92.3111C121.699 91.2435 115.702 93.4046 115.589 97.0194C115.544 98.4434 116.406 100.291 117.598 100.447C120.115 100.777 124.001 93.555 122.763 92.3111Z" fill="#FF2E63"/>
</g>
<g filter="url(#filter6_d_1_231)">
<path d="M22.5142 57.6746C24.9946 55.7883 29.9926 52.3814 30.5495 53.0294C31.4388 54.0635 18.2014 62.1786 11.4935 77.0629C4.36791 92.8736 8.71233 102.897 6.943 108.048C6.56797 109.137 3.00146 98.5325 4.30293 88.2693C5.51157 78.7264 9.81329 72.13 11.9094 68.9923C15.669 63.3631 19.8017 59.7409 22.5161 57.6764L22.5142 57.6746Z" fill="#08D9D6"/>
</g>
<g filter="url(#filter7_d_1_231)">
<path d="M32.2839 75.6408C39.9237 71.4895 51.6908 67.7615 56.0036 67.819C57.3682 67.8376 31.7807 73.2235 18.6026 101.806C10.079 120.294 12.9642 130.995 11.5253 131.093C10.3761 131.171 7.58379 121.578 8.88526 111.315C10.0939 101.772 10.8774 96.9248 15.7602 89.0083C20.2996 81.6488 23.3444 80.4995 32.2857 75.6408H32.2839Z" fill="#08D9D6"/>
</g>
<g filter="url(#filter8_d_1_231)">
<path d="M94.0411 107.42C95.2831 107.63 89.2622 102.465 83.5922 100.954C82.1478 100.569 79.3462 99.8508 75.7221 100.346C75.2153 100.415 69.6381 101.193 66.8105 104.082C55.1975 115.947 68.7877 130.069 68.6596 130.106C68.578 130.13 64.3468 122.432 67.2375 114.462C67.7239 113.122 69.0217 110.127 71.788 107.778C75.8651 104.318 79.4669 104.951 94.0392 107.42H94.0411Z" fill="#08D9D6"/>
</g>
<g filter="url(#filter9_d_1_231)">
<path d="M48.3244 143.189C47.6041 143.388 43.605 136.284 43.631 127.688C43.657 119.287 47.515 113.266 48.7496 111.477C49.8487 109.886 53.0866 105.539 58.9887 102.376C66.3538 98.4267 73.1378 98.8909 74.4894 99.1044C75.5086 99.2659 64.0256 100.586 56.0033 108.916C48.4358 116.774 47.3683 127.356 47.1864 129.679C46.5737 137.549 48.9464 143.016 48.3244 143.189Z" fill="#08D9D6"/>
</g>
<defs>
<filter id="filter0_d_1_231" x="0" y="0" width="126.785" height="172.353" filterUnits="userSpaceOnUse" color-interpolation-filters="sRGB">
<feFlood flood-opacity="0" result="BackgroundImageFix"/>
<feColorMatrix in="SourceAlpha" type="matrix" values="0 0 0 0 0 0 0 0 0 0 0 0 0 0 0 0 0 0 127 0" result="hardAlpha"/>
<feOffset dy="4"/>
<feGaussianBlur stdDeviation="2"/>
<feComposite in2="hardAlpha" operator="out"/>
<feColorMatrix type="matrix" values="0 0 0 0 0 0 0 0 0 0 0 0 0 0 0 0 0 0 0.25 0"/>
<feBlend mode="normal" in2="BackgroundImageFix" result="effect1_dropShadow_1_231"/>
<feBlend mode="normal" in="SourceGraphic" in2="effect1_dropShadow_1_231" result="shape"/>
</filter>
<filter id="filter1_d_1_231" x="19.9031" y="1.53479" width="92.4233" height="160.616" filterUnits="userSpaceOnUse" color-interpolation-filters="sRGB">
<feFlood flood-opacity="0" result="BackgroundImageFix"/>
<feColorMatrix in="SourceAlpha" type="matrix" values="0 0 0 0 0 0 0 0 0 0 0 0 0 0 0 0 0 0 127 0" result="hardAlpha"/>
<feOffset dy="4"/>
<feGaussianBlur stdDeviation="2"/>
<feComposite in2="hardAlpha" operator="out"/>
<feColorMatrix type="matrix" values="0 0 0 0 0 0 0 0 0 0 0 0 0 0 0 0 0 0 0.25 0"/>
<feBlend mode="normal" in2="BackgroundImageFix" result="effect1_dropShadow_1_231"/>
<feBlend mode="normal" in="SourceGraphic" in2="effect1_dropShadow_1_231" result="shape"/>
</filter>
<filter id="filter2_d_1_231" x="61.7205" y="62.2223" width="35.3801" height="24.9144" filterUnits="userSpaceOnUse" color-interpolation-filters="sRGB">
<feFlood flood-opacity="0" result="BackgroundImageFix"/>
<feColorMatrix in="SourceAlpha" type="matrix" values="0 0 0 0 0 0 0 0 0 0 0 0 0 0 0 0 0 0 127 0" result="hardAlpha"/>
<feOffset dy="4"/>
<feGaussianBlur stdDeviation="2"/>
<feComposite in2="hardAlpha" operator="out"/>
<feColorMatrix type="matrix" values="0 0 0 0 0 0 0 0 0 0 0 0 0 0 0 0 0 0 0.25 0"/>
<feBlend mode="normal" in2="BackgroundImageFix" result="effect1_dropShadow_1_231"/>
<feBlend mode="normal" in="SourceGraphic" in2="effect1_dropShadow_1_231" result="shape"/>
</filter>
<filter id="filter3_d_1_231" x="46.9458" y="1.57336" width="21.8628" height="51.8774" filterUnits="userSpaceOnUse" color-interpolation-filters="sRGB">
<feFlood flood-opacity="0" result="BackgroundImageFix"/>
<feColorMatrix in="SourceAlpha" type="matrix" values="0 0 0 0 0 0 0 0 0 0 0 0 0 0 0 0 0 0 127 0" result="hardAlpha"/>
<feOffset dy="4"/>
<feGaussianBlur stdDeviation="2"/>
<feComposite in2="hardAlpha" operator="out"/>
<feColorMatrix type="matrix" values="0 0 0 0 0 0 0 0 0 0 0 0 0 0 0 0 0 0 0.25 0"/>
<feBlend mode="normal" in2="BackgroundImageFix" result="effect1_dropShadow_1_231"/>
<feBlend mode="normal" in="SourceGraphic" in2="effect1_dropShadow_1_231" result="shape"/>
</filter>
<filter id="filter4_d_1_231" x="72.0884" y="7.95728" width="18.6033" height="36.8048" filterUnits="userSpaceOnUse" color-interpolation-filters="sRGB">
<feFlood flood-opacity="0" result="BackgroundImageFix"/>
<feColorMatrix in="SourceAlpha" type="matrix" values="0 0 0 0 0 0 0 0 0 0 0 0 0 0 0 0 0 0 127 0" result="hardAlpha"/>
<feOffset dy="4"/>
<feGaussianBlur stdDeviation="2"/>
<feComposite in2="hardAlpha" operator="out"/>
<feColorMatrix type="matrix" values="0 0 0 0 0 0 0 0 0 0 0 0 0 0 0 0 0 0 0.25 0"/>
<feBlend mode="normal" in2="BackgroundImageFix" result="effect1_dropShadow_1_231"/>
<feBlend mode="normal" in="SourceGraphic" in2="effect1_dropShadow_1_231" result="shape"/>
</filter>
<filter id="filter5_d_1_231" x="111.587" y="92.0377" width="15.4131" height="16.4199" filterUnits="userSpaceOnUse" color-interpolation-filters="sRGB">
<feFlood flood-opacity="0" result="BackgroundImageFix"/>
<feColorMatrix in="SourceAlpha" type="matrix" values="0 0 0 0 0 0 0 0 0 0 0 0 0 0 0 0 0 0 127 0" result="hardAlpha"/>
<feOffset dy="4"/>
<feGaussianBlur stdDeviation="2"/>
<feComposite in2="hardAlpha" operator="out"/>
<feColorMatrix type="matrix" values="0 0 0 0 0 0 0 0 0 0 0 0 0 0 0 0 0 0 0.25 0"/>
<feBlend mode="normal" in2="BackgroundImageFix" result="effect1_dropShadow_1_231"/>
<feBlend mode="normal" in="SourceGraphic" in2="effect1_dropShadow_1_231" result="shape"/>
</filter>
<filter id="filter6_d_1_231" x="0.0185547" y="52.9486" width="34.5737" height="63.1764" filterUnits="userSpaceOnUse" color-interpolation-filters="sRGB">
<feFlood flood-opacity="0" result="BackgroundImageFix"/>
<feColorMatrix in="SourceAlpha" type="matrix" values="0 0 0 0 0 0 0 0 0 0 0 0 0 0 0 0 0 0 127 0" result="hardAlpha"/>
<feOffset dy="4"/>
<feGaussianBlur stdDeviation="2"/>
<feComposite in2="hardAlpha" operator="out"/>
<feColorMatrix type="matrix" values="0 0 0 0 0 0 0 0 0 0 0 0 0 0 0 0 0 0 0.25 0"/>
<feBlend mode="normal" in2="BackgroundImageFix" result="effect1_dropShadow_1_231"/>
<feBlend mode="normal" in="SourceGraphic" in2="effect1_dropShadow_1_231" result="shape"/>
</filter>
<filter id="filter7_d_1_231" x="4.54688" y="67.8184" width="55.5093" height="71.2755" filterUnits="userSpaceOnUse" color-interpolation-filters="sRGB">
<feFlood flood-opacity="0" result="BackgroundImageFix"/>
<feColorMatrix in="SourceAlpha" type="matrix" values="0 0 0 0 0 0 0 0 0 0 0 0 0 0 0 0 0 0 127 0" result="hardAlpha"/>
<feOffset dy="4"/>
<feGaussianBlur stdDeviation="2"/>
<feComposite in2="hardAlpha" operator="out"/>
<feColorMatrix type="matrix" values="0 0 0 0 0 0 0 0 0 0 0 0 0 0 0 0 0 0 0.25 0"/>
<feBlend mode="normal" in2="BackgroundImageFix" result="effect1_dropShadow_1_231"/>
<feBlend mode="normal" in="SourceGraphic" in2="effect1_dropShadow_1_231" result="shape"/>
</filter>
<filter id="filter8_d_1_231" x="58.1128" y="100.178" width="40.0928" height="37.9279" filterUnits="userSpaceOnUse" color-interpolation-filters="sRGB">
<feFlood flood-opacity="0" result="BackgroundImageFix"/>
<feColorMatrix in="SourceAlpha" type="matrix" values="0 0 0 0 0 0 0 0 0 0 0 0 0 0 0 0 0 0 127 0" result="hardAlpha"/>
<feOffset dy="4"/>
<feGaussianBlur stdDeviation="2"/>
<feComposite in2="hardAlpha" operator="out"/>
<feColorMatrix type="matrix" values="0 0 0 0 0 0 0 0 0 0 0 0 0 0 0 0 0 0 0.25 0"/>
<feBlend mode="normal" in2="BackgroundImageFix" result="effect1_dropShadow_1_231"/>
<feBlend mode="normal" in="SourceGraphic" in2="effect1_dropShadow_1_231" result="shape"/>
</filter>
<filter id="filter9_d_1_231" x="39.6309" y="98.9684" width="38.9219" height="52.2249" filterUnits="userSpaceOnUse" color-interpolation-filters="sRGB">
<feFlood flood-opacity="0" result="BackgroundImageFix"/>
<feColorMatrix in="SourceAlpha" type="matrix" values="0 0 0 0 0 0 0 0 0 0 0 0 0 0 0 0 0 0 127 0" result="hardAlpha"/>
<feOffset dy="4"/>
<feGaussianBlur stdDeviation="2"/>
<feComposite in2="hardAlpha" operator="out"/>
<feColorMatrix type="matrix" values="0 0 0 0 0 0 0 0 0 0 0 0 0 0 0 0 0 0 0.25 0"/>
<feBlend mode="normal" in2="BackgroundImageFix" result="effect1_dropShadow_1_231"/>
<feBlend mode="normal" in="SourceGraphic" in2="effect1_dropShadow_1_231" result="shape"/>
</filter>
<linearGradient id="paint0_linear_1_231" x1="49.5795" y1="84.8458" x2="108.341" y2="84.8458" gradientUnits="userSpaceOnUse">
<stop stop-color="#0A516D"/>
<stop offset="0.464682" stop-color="#018790" stop-opacity="0.26"/>
<stop offset="1" stop-color="#F77754" stop-opacity="0"/>
</linearGradient>
</defs>
</svg>
