<svg width="127" height="173" viewBox="0 0 127 173" fill="none" xmlns="http://www.w3.org/2000/svg">
<g filter="url(#filter0_d_67_494)">
<path d="M65.058 0.224278C65.1378 -2.20228 48.1834 15.582 38.9543 28.4129C37.4616 30.4885 32.5862 40.0184 32.5862 40.0184C23.1065 45.0201 15.2865 60.8011 16.5397 60.0213C17.416 59.4755 24.0533 56.3954 22.5124 57.6746C-5.92132 81.2978 6.84088 108.04 6.94299 108.048C7.70233 108.111 6.75362 101.412 11.4619 99.9584C13.4299 99.3513 -0.104625 116.896 20.4051 146.939C20.4051 146.939 14.7481 136.615 24.2928 132.824C27.0777 131.717 25.494 151.341 51.2059 162.446C51.7016 162.659 44.3923 154.375 46.9525 156.271C65.9937 170.375 85.9539 161.755 85.9799 161.644C85.991 161.599 78.5609 160.892 79.6118 159.447C81.0488 157.472 86.4217 158.736 96.4399 154.518C103.105 151.711 107.847 148.204 107.089 148.339C104.975 148.722 97.862 155.702 81.8712 153.048C79.7194 152.691 89.1472 150.768 95.0642 147.975C102.908 144.275 110.457 139.426 108.194 139.87C94.1637 142.619 84.437 137.562 84.3275 136.446C84.2087 135.224 90.9054 134.381 89.5167 134.276C79.5913 133.524 73.7784 131.431 71.1253 122.015C69.4154 115.951 68.0916 106.657 79.5635 104.696C90.1312 102.892 93.4991 111.016 106.963 107.789C117.018 105.38 120.654 94.9178 122.763 92.3074C123.362 91.5648 111.703 84.4076 103.612 75.1785C98.4877 69.3321 101.527 62.9807 100.578 59.9471C97.7599 50.9277 90.9611 45.6179 85.8685 40.9393C85.0943 40.2282 85.9632 33.3793 86.0114 27.2878C86.069 19.7946 86.2732 9.6836 87.8123 6.76319C89.8973 2.80308 68.6969 22.3493 67.8614 22.7558C64.8055 24.2393 64.8704 5.95743 65.0598 0.222422L65.058 0.224278Z" fill="#252A34"/>
</g>
<g filter="url(#filter1_d_67_494)">
<path d="M39.983 153.701C39.9348 157.316 32.1798 138.494 26.3315 120.71C20.8806 104.13 24.1853 81.3888 40.553 61.8352C55.8328 43.5812 78.4479 55.4021 80.3713 56.5736C77.5122 54.8322 76.3221 53.2058 66.9222 48.1948C62.1043 46.5536 54.8376 44.8177 54.4886 45.5288C59.5404 35.2006 59.8411 26.9796 60.5281 21.2724C61.5696 12.6077 62.2807 4.71537 64.5847 1.64643C65.9419 -0.16003 64.5364 20.5094 67.2508 22.7837C68.1958 23.5765 84.0195 7.46127 87.9555 6.35846C86.0599 6.88944 86.1045 20.7322 86.1045 21.46C86.1045 36.1233 84.9032 39.5988 85.6329 40.3099C88.6907 43.2842 99.756 53.4416 100.45 59.9508C98.9799 65.4871 71.2183 65.7341 65.1046 68.0919C44.075 76.2015 39.1754 92.2796 34.1515 102.708C33.3142 104.446 40.6867 93.3694 52.2124 96.7242C53.1685 97.0027 67.9971 89.6729 82.5027 101.097C69.4193 107.117 69.8389 111.326 70.7783 119.9C71.3149 124.798 74.0403 132.36 89.424 134.374C89.6487 134.404 83.9861 135.971 84.2887 136.349C88.0966 141.106 104.706 140.898 108.203 139.962C109.577 139.595 99.2342 147.868 88.713 147.73C67.999 147.457 63.3928 139.99 59.5125 134.174C51.3101 121.881 56.6107 116.146 56.2282 115.942C54.3809 114.958 50.3038 119.872 48.8947 125.167C45.0553 139.589 51.5867 148.336 51.8337 149.342C53.3022 155.326 42.1237 131.307 39.4149 132.181C36.6802 133.065 40.0109 151.594 39.983 153.701Z" fill="url(#paint0_linear_67_494)" shape-rendering="crispEdges"/>
</g>
<g filter="url(#filter2_d_67_494)">
<path d="M65.7207 62.4163C69.0496 62.0431 75.2116 61.8742 81.3643 65.1659C89.2066 69.36 94.0912 77.5976 92.9309 78.9121C91.8318 80.156 84.6356 75.9676 80.5121 72.9395C77.6252 70.8211 76.4982 69.4565 72.5492 66.6828C69.7625 64.724 67.3452 63.3112 65.7226 62.4163H65.7207Z" fill="#EAEAEA"/>
</g>
<g filter="url(#filter3_d_67_494)">
<path d="M54.1564 45.4452C52.2794 45.2169 48.737 33.706 52.8605 23.5152C58.1536 10.4318 63.471 2.68243 64.4327 1.76342C65.8975 0.361695 62.7395 6.77622 60.9052 18.9369C59.9044 25.5779 60.3444 29.9873 58.0422 37.4842C57.3126 39.8588 55.5451 45.6179 54.1545 45.4471L54.1564 45.4452Z" fill="#FF2E63"/>
</g>
<g filter="url(#filter4_d_67_494)">
<path d="M76.1041 33.2549C75.8424 34.081 78.8055 35.4902 80.6064 36.6283C82.5892 37.8815 82.2494 30.1822 84.0188 19.9431C85.6266 10.6416 87.4777 7.25517 86.3396 8.07579C84.9861 9.05421 76.9396 30.6241 76.1041 33.2549Z" fill="#FF2E63"/>
</g>
<g filter="url(#filter5_d_67_494)">
<path d="M122.762 92.3111C121.699 91.2435 115.702 93.4046 115.589 97.0194C115.544 98.4434 116.405 100.291 117.597 100.447C120.115 100.777 124.001 93.555 122.762 92.3111Z" fill="#FF2E63"/>
</g>
<g filter="url(#filter6_d_67_494)">
<path d="M22.5142 57.6746C24.9946 55.7883 29.9926 52.3815 30.5495 53.0294C31.4388 54.0636 18.2014 62.1787 11.4935 77.063C4.36791 92.8737 8.71233 102.897 6.943 108.048C6.56797 109.137 3.00146 98.5326 4.30293 88.2694C5.51157 78.7265 9.81329 72.13 11.9094 68.9924C15.669 63.3632 19.8017 59.741 22.5161 57.6765L22.5142 57.6746Z" fill="#08D9D6"/>
</g>
<g filter="url(#filter7_d_67_494)">
<path d="M32.2839 75.6408C39.9237 71.4895 51.6908 67.7615 56.0036 67.819C57.3682 67.8376 31.7807 73.2235 18.6026 101.806C10.079 120.294 12.9642 130.995 11.5253 131.093C10.3761 131.171 7.58379 121.578 8.88526 111.315C10.0939 101.772 10.8774 96.9248 15.7602 89.0083C20.2996 81.6488 23.3444 80.4995 32.2857 75.6408H32.2839Z" fill="#08D9D6"/>
</g>
<g filter="url(#filter8_d_67_494)">
<path d="M94.0416 107.42C95.2836 107.63 89.2627 102.465 83.5927 100.954C82.1483 100.569 79.3467 99.8507 75.7226 100.346C75.2158 100.415 69.6386 101.193 66.811 104.082C55.198 115.947 68.7882 130.069 68.6601 130.106C68.5784 130.13 64.3473 122.432 67.238 114.462C67.7244 113.122 69.0222 110.127 71.7885 107.778C75.8656 104.318 79.4673 104.951 94.0397 107.42H94.0416Z" fill="#08D9D6"/>
</g>
<g filter="url(#filter9_d_67_494)">
<path d="M48.3244 143.189C47.6041 143.388 43.605 136.284 43.631 127.688C43.657 119.287 47.515 113.266 48.7496 111.477C49.8487 109.886 53.0866 105.539 58.9887 102.376C66.3538 98.4267 73.1378 98.8909 74.4894 99.1044C75.5086 99.2659 64.0256 100.586 56.0033 108.916C48.4358 116.774 47.3683 127.356 47.1864 129.679C46.5737 137.549 48.9464 143.016 48.3244 143.189Z" fill="#08D9D6"/>
</g>
<defs>
<filter id="filter0_d_67_494" x="0" y="0" width="126.785" height="172.353" filterUnits="userSpaceOnUse" color-interpolation-filters="sRGB">
<feFlood flood-opacity="0" result="BackgroundImageFix"/>
<feColorMatrix in="SourceAlpha" type="matrix" values="0 0 0 0 0 0 0 0 0 0 0 0 0 0 0 0 0 0 127 0" result="hardAlpha"/>
<feOffset dy="4"/>
<feGaussianBlur stdDeviation="2"/>
<feComposite in2="hardAlpha" operator="out"/>
<feColorMatrix type="matrix" values="0 0 0 0 0 0 0 0 0 0 0 0 0 0 0 0 0 0 0.25 0"/>
<feBlend mode="normal" in2="BackgroundImageFix" result="effect1_dropShadow_67_494"/>
<feBlend mode="normal" in="SourceGraphic" in2="effect1_dropShadow_67_494" result="shape"/>
</filter>
<filter id="filter1_d_67_494" x="19.9033" y="1.53473" width="92.4238" height="160.616" filterUnits="userSpaceOnUse" color-interpolation-filters="sRGB">
<feFlood flood-opacity="0" result="BackgroundImageFix"/>
<feColorMatrix in="SourceAlpha" type="matrix" values="0 0 0 0 0 0 0 0 0 0 0 0 0 0 0 0 0 0 127 0" result="hardAlpha"/>
<feOffset dy="4"/>
<feGaussianBlur stdDeviation="2"/>
<feComposite in2="hardAlpha" operator="out"/>
<feColorMatrix type="matrix" values="0 0 0 0 0 0 0 0 0 0 0 0 0 0 0 0 0 0 0.25 0"/>
<feBlend mode="normal" in2="BackgroundImageFix" result="effect1_dropShadow_67_494"/>
<feBlend mode="normal" in="SourceGraphic" in2="effect1_dropShadow_67_494" result="shape"/>
</filter>
<filter id="filter2_d_67_494" x="61.7207" y="62.2224" width="35.3799" height="24.9145" filterUnits="userSpaceOnUse" color-interpolation-filters="sRGB">
<feFlood flood-opacity="0" result="BackgroundImageFix"/>
<feColorMatrix in="SourceAlpha" type="matrix" values="0 0 0 0 0 0 0 0 0 0 0 0 0 0 0 0 0 0 127 0" result="hardAlpha"/>
<feOffset dy="4"/>
<feGaussianBlur stdDeviation="2"/>
<feComposite in2="hardAlpha" operator="out"/>
<feColorMatrix type="matrix" values="0 0 0 0 0 0 0 0 0 0 0 0 0 0 0 0 0 0 0.25 0"/>
<feBlend mode="normal" in2="BackgroundImageFix" result="effect1_dropShadow_67_494"/>
<feBlend mode="normal" in="SourceGraphic" in2="effect1_dropShadow_67_494" result="shape"/>
</filter>
<filter id="filter3_d_67_494" x="46.9463" y="1.57336" width="21.8623" height="51.8774" filterUnits="userSpaceOnUse" color-interpolation-filters="sRGB">
<feFlood flood-opacity="0" result="BackgroundImageFix"/>
<feColorMatrix in="SourceAlpha" type="matrix" values="0 0 0 0 0 0 0 0 0 0 0 0 0 0 0 0 0 0 127 0" result="hardAlpha"/>
<feOffset dy="4"/>
<feGaussianBlur stdDeviation="2"/>
<feComposite in2="hardAlpha" operator="out"/>
<feColorMatrix type="matrix" values="0 0 0 0 0 0 0 0 0 0 0 0 0 0 0 0 0 0 0.25 0"/>
<feBlend mode="normal" in2="BackgroundImageFix" result="effect1_dropShadow_67_494"/>
<feBlend mode="normal" in="SourceGraphic" in2="effect1_dropShadow_67_494" result="shape"/>
</filter>
<filter id="filter4_d_67_494" x="72.0879" y="7.95728" width="18.6035" height="36.8049" filterUnits="userSpaceOnUse" color-interpolation-filters="sRGB">
<feFlood flood-opacity="0" result="BackgroundImageFix"/>
<feColorMatrix in="SourceAlpha" type="matrix" values="0 0 0 0 0 0 0 0 0 0 0 0 0 0 0 0 0 0 127 0" result="hardAlpha"/>
<feOffset dy="4"/>
<feGaussianBlur stdDeviation="2"/>
<feComposite in2="hardAlpha" operator="out"/>
<feColorMatrix type="matrix" values="0 0 0 0 0 0 0 0 0 0 0 0 0 0 0 0 0 0 0.25 0"/>
<feBlend mode="normal" in2="BackgroundImageFix" result="effect1_dropShadow_67_494"/>
<feBlend mode="normal" in="SourceGraphic" in2="effect1_dropShadow_67_494" result="shape"/>
</filter>
<filter id="filter5_d_67_494" x="111.587" y="92.0377" width="15.4131" height="16.4199" filterUnits="userSpaceOnUse" color-interpolation-filters="sRGB">
<feFlood flood-opacity="0" result="BackgroundImageFix"/>
<feColorMatrix in="SourceAlpha" type="matrix" values="0 0 0 0 0 0 0 0 0 0 0 0 0 0 0 0 0 0 127 0" result="hardAlpha"/>
<feOffset dy="4"/>
<feGaussianBlur stdDeviation="2"/>
<feComposite in2="hardAlpha" operator="out"/>
<feColorMatrix type="matrix" values="0 0 0 0 0 0 0 0 0 0 0 0 0 0 0 0 0 0 0.25 0"/>
<feBlend mode="normal" in2="BackgroundImageFix" result="effect1_dropShadow_67_494"/>
<feBlend mode="normal" in="SourceGraphic" in2="effect1_dropShadow_67_494" result="shape"/>
</filter>
<filter id="filter6_d_67_494" x="0.0185547" y="52.9487" width="34.5732" height="63.1764" filterUnits="userSpaceOnUse" color-interpolation-filters="sRGB">
<feFlood flood-opacity="0" result="BackgroundImageFix"/>
<feColorMatrix in="SourceAlpha" type="matrix" values="0 0 0 0 0 0 0 0 0 0 0 0 0 0 0 0 0 0 127 0" result="hardAlpha"/>
<feOffset dy="4"/>
<feGaussianBlur stdDeviation="2"/>
<feComposite in2="hardAlpha" operator="out"/>
<feColorMatrix type="matrix" values="0 0 0 0 0 0 0 0 0 0 0 0 0 0 0 0 0 0 0.25 0"/>
<feBlend mode="normal" in2="BackgroundImageFix" result="effect1_dropShadow_67_494"/>
<feBlend mode="normal" in="SourceGraphic" in2="effect1_dropShadow_67_494" result="shape"/>
</filter>
<filter id="filter7_d_67_494" x="4.54688" y="67.8184" width="55.5088" height="71.2755" filterUnits="userSpaceOnUse" color-interpolation-filters="sRGB">
<feFlood flood-opacity="0" result="BackgroundImageFix"/>
<feColorMatrix in="SourceAlpha" type="matrix" values="0 0 0 0 0 0 0 0 0 0 0 0 0 0 0 0 0 0 127 0" result="hardAlpha"/>
<feOffset dy="4"/>
<feGaussianBlur stdDeviation="2"/>
<feComposite in2="hardAlpha" operator="out"/>
<feColorMatrix type="matrix" values="0 0 0 0 0 0 0 0 0 0 0 0 0 0 0 0 0 0 0.25 0"/>
<feBlend mode="normal" in2="BackgroundImageFix" result="effect1_dropShadow_67_494"/>
<feBlend mode="normal" in="SourceGraphic" in2="effect1_dropShadow_67_494" result="shape"/>
</filter>
<filter id="filter8_d_67_494" x="58.1133" y="100.178" width="40.0928" height="37.9278" filterUnits="userSpaceOnUse" color-interpolation-filters="sRGB">
<feFlood flood-opacity="0" result="BackgroundImageFix"/>
<feColorMatrix in="SourceAlpha" type="matrix" values="0 0 0 0 0 0 0 0 0 0 0 0 0 0 0 0 0 0 127 0" result="hardAlpha"/>
<feOffset dy="4"/>
<feGaussianBlur stdDeviation="2"/>
<feComposite in2="hardAlpha" operator="out"/>
<feColorMatrix type="matrix" values="0 0 0 0 0 0 0 0 0 0 0 0 0 0 0 0 0 0 0.25 0"/>
<feBlend mode="normal" in2="BackgroundImageFix" result="effect1_dropShadow_67_494"/>
<feBlend mode="normal" in="SourceGraphic" in2="effect1_dropShadow_67_494" result="shape"/>
</filter>
<filter id="filter9_d_67_494" x="39.6309" y="98.9684" width="38.9219" height="52.2249" filterUnits="userSpaceOnUse" color-interpolation-filters="sRGB">
<feFlood flood-opacity="0" result="BackgroundImageFix"/>
<feColorMatrix in="SourceAlpha" type="matrix" values="0 0 0 0 0 0 0 0 0 0 0 0 0 0 0 0 0 0 127 0" result="hardAlpha"/>
<feOffset dy="4"/>
<feGaussianBlur stdDeviation="2"/>
<feComposite in2="hardAlpha" operator="out"/>
<feColorMatrix type="matrix" values="0 0 0 0 0 0 0 0 0 0 0 0 0 0 0 0 0 0 0.25 0"/>
<feBlend mode="normal" in2="BackgroundImageFix" result="effect1_dropShadow_67_494"/>
<feBlend mode="normal" in="SourceGraphic" in2="effect1_dropShadow_67_494" result="shape"/>
</filter>
<linearGradient id="paint0_linear_67_494" x1="49.5797" y1="84.8458" x2="108.341" y2="84.8458" gradientUnits="userSpaceOnUse">
<stop stop-color="#0A516D"/>
<stop offset="0.464682" stop-color="#018790" stop-opacity="0.26"/>
<stop offset="1" stop-color="#F77754" stop-opacity="0"/>
</linearGradient>
</defs>
</svg>
